<svg xmlns="http://www.w3.org/2000/svg" xmlns:xlink="http://www.w3.org/1999/xlink" width="500" zoomAndPan="magnify" viewBox="0 0 375 374.999991" height="500" preserveAspectRatio="xMidYMid meet" version="1.0"><defs><g/></defs><path fill="#ffffff" d="M 79 161.152344 C 90.597656 183.222656 92.191406 185.015625 93.316406 183.511719 C 94.34375 182.140625 78.136719 137.550781 74.058594 147.082031 C 74.191406 147.027344 71.921875 147.6875 79 161.152344 Z M 79 161.152344 " fill-opacity="1" fill-rule="nonzero"/><path fill="#ffffff" d="M 103.375 138.871094 C 99.953125 142.121094 102.488281 170.992188 102.660156 171.933594 C 103.074219 174.214844 104.847656 174.859375 105.554688 171.410156 C 105.660156 170.890625 110.675781 136.191406 103.375 138.871094 Z M 103.375 138.871094 " fill-opacity="1" fill-rule="nonzero"/><path fill="#ffffff" d="M 54.691406 169.03125 C 49.085938 174.292969 78.875 190.578125 79.914062 190.199219 C 83.730469 188.796875 59.039062 169.515625 59.011719 169.496094 C 55.996094 167.566406 54.785156 168.988281 54.691406 169.03125 Z M 54.691406 169.03125 " fill-opacity="1" fill-rule="nonzero"/><path fill="#ffffff" d="M 119.996094 176.789062 C 118.898438 185.894531 130.820312 164.59375 134.003906 155.992188 C 134.96875 153.390625 134.613281 151.472656 133.042969 150.785156 C 127.730469 148.464844 120.074219 176.164062 119.996094 176.789062 Z M 119.996094 176.789062 " fill-opacity="1" fill-rule="nonzero"/><path fill="#ffffff" d="M 128.828125 190.769531 C 130.8125 192.25 150.429688 174.027344 152.125 171.449219 C 153.433594 169.460938 151.738281 166.089844 147.820312 168.941406 C 147.839844 168.929688 126.300781 188.886719 128.828125 190.769531 Z M 128.828125 190.769531 " fill-opacity="1" fill-rule="nonzero"/><g fill="#ffffff" fill-opacity="1"><g transform="translate(94.914777, 224.088969)"><g><path d="M 11.203125 -35.96875 C 12.410156 -36.257812 13.722656 -36.40625 15.140625 -36.40625 C 16.554688 -36.40625 17.816406 -36.222656 18.921875 -35.859375 C 19.660156 -35.640625 20.164062 -35.445312 20.4375 -35.28125 C 20.71875 -35.113281 21.003906 -34.847656 21.296875 -34.484375 C 21.921875 -33.671875 22.351562 -32.882812 22.59375 -32.125 C 22.832031 -31.375 22.953125 -30.875 22.953125 -30.625 C 22.953125 -30.289062 22.859375 -30.085938 22.671875 -30.015625 C 22.640625 -30.015625 22.585938 -30.015625 22.515625 -30.015625 C 22.285156 -30.015625 22.023438 -30.085938 21.734375 -30.234375 C 21.367188 -30.421875 20.378906 -30.695312 18.765625 -31.0625 C 17.503906 -31.351562 16.398438 -31.5 15.453125 -31.5 C 15.410156 -31.5 15.125 -31.488281 14.59375 -31.46875 C 14.0625 -31.457031 13.28125 -31.285156 12.25 -30.953125 C 11.582031 -30.734375 10.925781 -30.382812 10.28125 -29.90625 C 9.644531 -29.425781 9.175781 -28.945312 8.875 -28.46875 C 8.726562 -28.207031 8.644531 -28.019531 8.625 -27.90625 C 8.613281 -27.800781 8.609375 -27.710938 8.609375 -27.640625 C 8.609375 -27.492188 8.644531 -27.289062 8.71875 -27.03125 C 8.9375 -26.226562 9.394531 -25.601562 10.09375 -25.15625 C 10.789062 -24.71875 12.132812 -24.164062 14.125 -23.5 C 16.957031 -22.582031 19.144531 -21.5 20.6875 -20.25 C 22.226562 -19 23.238281 -17.488281 23.71875 -15.71875 C 23.945312 -15.019531 24.0625 -14.378906 24.0625 -13.796875 C 24.0625 -13.753906 24.050781 -13.566406 24.03125 -13.234375 C 24.007812 -12.910156 23.867188 -12.398438 23.609375 -11.703125 C 22.953125 -9.742188 21.570312 -8.175781 19.46875 -7 C 17.375 -5.820312 15.0625 -5.234375 12.53125 -5.234375 C 12.34375 -5.234375 12.175781 -5.234375 12.03125 -5.234375 C 11.101562 -5.234375 10.382812 -5.304688 9.875 -5.453125 C 9.363281 -5.609375 8.628906 -5.890625 7.671875 -6.296875 C 7.046875 -6.546875 6.675781 -6.691406 6.5625 -6.734375 C 6.15625 -6.804688 5.554688 -7.179688 4.765625 -7.859375 C 3.984375 -8.535156 3.59375 -9.023438 3.59375 -9.328125 C 3.59375 -9.546875 3.40625 -9.910156 3.03125 -10.421875 C 2.664062 -10.972656 2.484375 -11.363281 2.484375 -11.59375 C 2.484375 -11.738281 2.578125 -11.8125 2.765625 -11.8125 C 2.765625 -11.8125 2.78125 -11.8125 2.8125 -11.8125 C 2.851562 -11.769531 2.910156 -11.75 2.984375 -11.75 C 3.234375 -11.675781 3.507812 -11.53125 3.8125 -11.3125 C 3.988281 -11.164062 4.148438 -11.09375 4.296875 -11.09375 C 4.410156 -11.09375 4.722656 -10.890625 5.234375 -10.484375 C 5.972656 -9.929688 6.71875 -9.609375 7.46875 -9.515625 C 8.226562 -9.421875 8.789062 -9.375 9.15625 -9.375 C 10.039062 -9.375 10.976562 -9.484375 11.96875 -9.703125 C 13.257812 -9.960938 14.398438 -10.394531 15.390625 -11 C 16.378906 -11.613281 17.03125 -12.203125 17.34375 -12.765625 C 17.664062 -13.335938 17.828125 -13.804688 17.828125 -14.171875 C 17.828125 -14.503906 17.734375 -14.816406 17.546875 -15.109375 C 16.847656 -16.367188 14.914062 -17.492188 11.75 -18.484375 C 8.914062 -19.367188 6.820312 -20.453125 5.46875 -21.734375 C 3.84375 -23.242188 2.941406 -24.957031 2.765625 -26.875 C 2.765625 -27.050781 2.765625 -27.210938 2.765625 -27.359375 C 2.765625 -29.160156 3.515625 -30.878906 5.015625 -32.515625 C 6.523438 -34.160156 8.585938 -35.3125 11.203125 -35.96875 Z M 11.203125 -35.96875 "/></g></g></g><g fill="#ffffff" fill-opacity="1"><g transform="translate(121.4524, 224.088969)"><g><path d="M 10.09375 -28.796875 C 10.976562 -29.128906 11.601562 -29.320312 11.96875 -29.375 C 12.34375 -29.4375 12.820312 -29.46875 13.40625 -29.46875 C 13.664062 -29.46875 13.976562 -29.46875 14.34375 -29.46875 C 15.445312 -29.425781 16.191406 -29.359375 16.578125 -29.265625 C 16.960938 -29.171875 17.453125 -28.976562 18.046875 -28.6875 C 20.910156 -27.289062 22.859375 -24.609375 23.890625 -20.640625 C 24.148438 -19.609375 24.28125 -18.988281 24.28125 -18.78125 C 24.28125 -18.582031 24.28125 -18.445312 24.28125 -18.375 C 24.382812 -18.007812 24.347656 -17.398438 24.171875 -16.546875 C 23.867188 -13.972656 22.984375 -11.800781 21.515625 -10.03125 C 20.046875 -8.269531 18.171875 -7.171875 15.890625 -6.734375 C 15.453125 -6.660156 14.992188 -6.625 14.515625 -6.625 C 13.847656 -6.625 13.09375 -6.757812 12.25 -7.03125 C 11.40625 -7.3125 10.554688 -7.835938 9.703125 -8.609375 L 8.765625 -9.4375 L 8.828125 -6.734375 C 8.859375 -4.960938 8.914062 -2.882812 9 -0.5 C 9 0.125 9.015625 0.59375 9.046875 0.90625 C 9.085938 1.21875 9.078125 1.503906 9.015625 1.765625 C 8.960938 2.023438 8.863281 2.195312 8.71875 2.28125 C 8.570312 2.375 8.414062 2.457031 8.25 2.53125 C 8.082031 2.601562 7.832031 2.660156 7.5 2.703125 C 7.28125 2.742188 7.023438 2.765625 6.734375 2.765625 C 6.253906 2.765625 5.585938 2.6875 4.734375 2.53125 C 3.890625 2.382812 3.414062 2.1875 3.3125 1.9375 C 3.3125 1.894531 3.3125 1.800781 3.3125 1.65625 C 3.195312 0.882812 3.113281 -1.878906 3.0625 -6.640625 C 3.007812 -11.410156 2.984375 -16.019531 2.984375 -20.46875 C 2.984375 -22.5625 2.945312 -24.53125 2.875 -26.375 L 2.703125 -28.53125 L 3.921875 -28.796875 C 4.472656 -28.910156 4.988281 -28.96875 5.46875 -28.96875 C 6.3125 -28.96875 7.046875 -28.800781 7.671875 -28.46875 C 7.890625 -28.351562 8.109375 -28.296875 8.328125 -28.296875 C 8.367188 -28.296875 8.460938 -28.304688 8.609375 -28.328125 C 8.753906 -28.347656 9.25 -28.503906 10.09375 -28.796875 Z M 15.78125 -23.671875 C 15.332031 -24.035156 14.6875 -24.21875 13.84375 -24.21875 C 13.664062 -24.21875 13.242188 -24.191406 12.578125 -24.140625 C 11.921875 -24.085938 10.945312 -23.785156 9.65625 -23.234375 L 8.71875 -22.78125 L 8.765625 -19.640625 C 8.804688 -18.796875 8.84375 -18.078125 8.875 -17.484375 C 8.957031 -16.785156 9.050781 -16.140625 9.15625 -15.546875 C 9.269531 -14.960938 9.582031 -14.359375 10.09375 -13.734375 C 10.832031 -12.929688 11.515625 -12.460938 12.140625 -12.328125 C 12.765625 -12.203125 13.222656 -12.140625 13.515625 -12.140625 C 14.210938 -12.140625 14.910156 -12.304688 15.609375 -12.640625 C 17.453125 -13.484375 18.265625 -15.335938 18.046875 -18.203125 C 18.046875 -18.273438 18.046875 -18.332031 18.046875 -18.375 C 17.929688 -20.875 17.175781 -22.640625 15.78125 -23.671875 Z M 15.78125 -23.671875 "/></g></g></g><g fill="#ffffff" fill-opacity="1"><g transform="translate(146.996938, 224.088969)"><g><path d="M 9.984375 -29.234375 C 10.753906 -29.421875 11.5625 -29.515625 12.40625 -29.515625 C 12.632812 -29.515625 13.078125 -29.492188 13.734375 -29.453125 C 14.398438 -29.421875 15.132812 -29.238281 15.9375 -28.90625 C 17.082031 -28.46875 18.101562 -27.707031 19 -26.625 C 19.90625 -25.539062 20.453125 -24.410156 20.640625 -23.234375 C 20.640625 -23.117188 20.640625 -22.953125 20.640625 -22.734375 C 20.640625 -21.992188 20.546875 -20.722656 20.359375 -18.921875 C 20.066406 -16.679688 19.921875 -14.828125 19.921875 -13.359375 C 19.921875 -12.617188 19.957031 -11.972656 20.03125 -11.421875 L 20.1875 -10.421875 L 21.84375 -12.1875 C 22.144531 -12.519531 22.429688 -12.816406 22.703125 -13.078125 C 22.972656 -13.335938 23.191406 -13.507812 23.359375 -13.59375 C 23.523438 -13.6875 23.628906 -13.734375 23.671875 -13.734375 C 23.703125 -13.734375 23.71875 -13.734375 23.71875 -13.734375 C 23.757812 -13.703125 23.78125 -13.664062 23.78125 -13.625 C 23.78125 -13.550781 23.722656 -13.5 23.609375 -13.46875 C 23.503906 -13.425781 23.453125 -13.390625 23.453125 -13.359375 C 23.453125 -13.273438 23.488281 -13.21875 23.5625 -13.1875 C 23.632812 -13.144531 23.671875 -13.085938 23.671875 -13.015625 C 23.671875 -12.835938 23.5625 -12.523438 23.34375 -12.078125 C 23.113281 -11.640625 23 -11.382812 23 -11.3125 C 23 -11.3125 23.09375 -11.382812 23.28125 -11.53125 C 23.46875 -11.71875 23.578125 -11.8125 23.609375 -11.8125 C 23.648438 -11.8125 23.671875 -11.789062 23.671875 -11.75 C 23.671875 -11.675781 23.632812 -11.457031 23.5625 -11.09375 C 23.1875 -9.25 22.820312 -7.96875 22.46875 -7.25 C 22.125 -6.53125 21.585938 -6.023438 20.859375 -5.734375 C 20.410156 -5.554688 20.003906 -5.46875 19.640625 -5.46875 C 19.609375 -5.46875 19.472656 -5.472656 19.234375 -5.484375 C 18.992188 -5.503906 18.523438 -5.625 17.828125 -5.84375 C 17.046875 -6.144531 16.359375 -6.488281 15.765625 -6.875 C 15.179688 -7.257812 14.78125 -7.632812 14.5625 -8 L 14.234375 -8.609375 L 13.46875 -7.828125 C 12.757812 -7.128906 11.875 -6.597656 10.8125 -6.234375 C 9.75 -5.867188 8.832031 -5.6875 8.0625 -5.6875 C 7.800781 -5.6875 7.5625 -5.703125 7.34375 -5.734375 C 6.164062 -5.921875 5.066406 -6.472656 4.046875 -7.390625 C 3.035156 -8.304688 2.347656 -9.390625 1.984375 -10.640625 C 1.765625 -11.421875 1.65625 -12.125 1.65625 -12.75 C 1.65625 -12.894531 1.671875 -13.1875 1.703125 -13.625 C 1.742188 -14.070312 1.96875 -14.695312 2.375 -15.5 C 3 -16.75 3.953125 -17.820312 5.234375 -18.71875 C 6.523438 -19.625 8.09375 -20.316406 9.9375 -20.796875 C 11.289062 -21.128906 12.46875 -21.425781 13.46875 -21.6875 L 15.0625 -22.171875 L 15.109375 -22.953125 C 15.109375 -23.054688 15.109375 -23.164062 15.109375 -23.28125 C 15.109375 -23.46875 15.082031 -23.644531 15.03125 -23.8125 C 14.976562 -23.976562 14.820312 -24.171875 14.5625 -24.390625 C 14.269531 -24.679688 14.015625 -24.863281 13.796875 -24.9375 C 13.578125 -25.007812 13.207031 -25.046875 12.6875 -25.046875 C 11.65625 -25.046875 10.753906 -24.804688 9.984375 -24.328125 C 9.210938 -23.847656 8.332031 -23.019531 7.34375 -21.84375 C 7.15625 -21.59375 6.929688 -21.46875 6.671875 -21.46875 C 6.597656 -21.46875 6.507812 -21.484375 6.40625 -21.515625 C 5.8125 -21.660156 5.144531 -22.097656 4.40625 -22.828125 C 3.675781 -23.566406 3.3125 -24.175781 3.3125 -24.65625 C 3.3125 -24.769531 3.421875 -24.984375 3.640625 -25.296875 C 3.859375 -25.609375 4.132812 -25.929688 4.46875 -26.265625 C 5.09375 -26.960938 5.898438 -27.578125 6.890625 -28.109375 C 7.890625 -28.640625 8.921875 -29.015625 9.984375 -29.234375 Z M 14.515625 -17.21875 C 14.515625 -17.363281 14.457031 -17.4375 14.34375 -17.4375 C 14.195312 -17.4375 13.609375 -17.289062 12.578125 -17 C 11.515625 -16.664062 10.671875 -16.332031 10.046875 -16 C 9.421875 -15.664062 8.882812 -15.257812 8.4375 -14.78125 C 7.78125 -14.007812 7.453125 -13.128906 7.453125 -12.140625 C 7.453125 -11.804688 7.488281 -11.457031 7.5625 -11.09375 C 7.632812 -10.757812 7.722656 -10.535156 7.828125 -10.421875 C 7.941406 -10.316406 8.109375 -10.265625 8.328125 -10.265625 C 8.398438 -10.265625 8.492188 -10.265625 8.609375 -10.265625 C 9.191406 -10.265625 9.953125 -10.578125 10.890625 -11.203125 C 11.828125 -11.828125 12.609375 -12.597656 13.234375 -13.515625 C 13.535156 -13.921875 13.820312 -14.535156 14.09375 -15.359375 C 14.375 -16.191406 14.515625 -16.8125 14.515625 -17.21875 Z M 14.515625 -17.21875 "/></g></g></g><g fill="#ffffff" fill-opacity="1"><g transform="translate(171.327694, 224.088969)"><g><path d="M 13.84375 -29.6875 C 14.21875 -29.789062 14.804688 -29.863281 15.609375 -29.90625 C 16.128906 -29.90625 16.46875 -29.875 16.625 -29.8125 C 16.789062 -29.757812 16.988281 -29.585938 17.21875 -29.296875 C 17.507812 -28.929688 17.75 -28.4375 17.9375 -27.8125 C 18.082031 -27.476562 18.179688 -27.082031 18.234375 -26.625 C 18.285156 -26.164062 18.296875 -25.769531 18.265625 -25.4375 C 18.265625 -25.363281 18.253906 -25.207031 18.234375 -24.96875 C 18.210938 -24.726562 18.148438 -24.609375 18.046875 -24.609375 C 18.003906 -24.609375 17.96875 -24.609375 17.9375 -24.609375 C 17.894531 -24.609375 17.875 -24.585938 17.875 -24.546875 C 17.875 -24.515625 17.894531 -24.441406 17.9375 -24.328125 C 17.96875 -24.222656 17.984375 -24.132812 17.984375 -24.0625 C 17.984375 -23.945312 17.929688 -23.890625 17.828125 -23.890625 C 17.710938 -23.890625 17.65625 -23.945312 17.65625 -24.0625 C 17.65625 -24.207031 17.234375 -24.367188 16.390625 -24.546875 C 15.722656 -24.734375 15.039062 -24.828125 14.34375 -24.828125 C 13.382812 -24.828125 12.484375 -24.660156 11.640625 -24.328125 C 10.972656 -24.066406 10.484375 -23.78125 10.171875 -23.46875 C 9.859375 -23.15625 9.613281 -22.78125 9.4375 -22.34375 C 9.289062 -21.832031 9.1875 -21.023438 9.125 -19.921875 C 9.070312 -18.816406 9.046875 -18.078125 9.046875 -17.703125 C 9.015625 -15.722656 9.015625 -12.859375 9.046875 -9.109375 L 9.15625 -5.515625 L 7.234375 -5.625 C 6.378906 -5.664062 5.769531 -5.722656 5.40625 -5.796875 C 5.039062 -5.867188 4.582031 -6.070312 4.03125 -6.40625 L 2.8125 -7.171875 L 3.09375 -19.59375 C 3.195312 -23.820312 3.273438 -26.503906 3.328125 -27.640625 C 3.390625 -28.773438 3.492188 -29.382812 3.640625 -29.46875 C 3.859375 -29.613281 4.410156 -29.6875 5.296875 -29.6875 C 5.484375 -29.6875 5.925781 -29.675781 6.625 -29.65625 C 7.320312 -29.632812 7.890625 -29.53125 8.328125 -29.34375 C 8.773438 -29.195312 9.070312 -29.03125 9.21875 -28.84375 C 9.363281 -28.664062 9.414062 -28.375 9.375 -27.96875 C 9.375 -27.675781 9.398438 -27.5 9.453125 -27.4375 C 9.515625 -27.382812 9.5625 -27.359375 9.59375 -27.359375 C 9.707031 -27.398438 10.039062 -27.601562 10.59375 -27.96875 C 11.769531 -28.8125 12.851562 -29.382812 13.84375 -29.6875 Z M 13.84375 -29.6875 "/></g></g></g><g fill="#ffffff" fill-opacity="1"><g transform="translate(189.589557, 224.088969)"><g><path d="M 13.40625 -35.3125 C 13.957031 -35.457031 14.632812 -35.53125 15.4375 -35.53125 C 16.25 -35.53125 17.59375 -35.457031 19.46875 -35.3125 C 20.132812 -35.269531 20.695312 -35.1875 21.15625 -35.0625 C 21.613281 -34.9375 22.15625 -34.707031 22.78125 -34.375 C 23.707031 -33.925781 24.617188 -33.296875 25.515625 -32.484375 C 26.421875 -31.679688 26.925781 -31.003906 27.03125 -30.453125 C 27.101562 -30.117188 27.175781 -29.878906 27.25 -29.734375 C 27.320312 -29.585938 27.507812 -29.3125 27.8125 -28.90625 C 28.03125 -28.570312 28.140625 -28.320312 28.140625 -28.15625 C 28.140625 -28 28.082031 -27.660156 27.96875 -27.140625 C 27.820312 -26.660156 27.691406 -26.328125 27.578125 -26.140625 C 27.472656 -25.960938 27.21875 -25.78125 26.8125 -25.59375 C 26.226562 -25.34375 25.769531 -25.21875 25.4375 -25.21875 C 25.21875 -25.175781 25.109375 -25.117188 25.109375 -25.046875 C 25.109375 -25.015625 25.109375 -24.976562 25.109375 -24.9375 C 25.109375 -24.789062 24.921875 -24.597656 24.546875 -24.359375 C 24.179688 -24.117188 23.867188 -24 23.609375 -24 C 23.578125 -24 23.539062 -24 23.5 -24 C 23.238281 -24 23.0625 -24.082031 22.96875 -24.25 C 22.882812 -24.414062 22.769531 -24.773438 22.625 -25.328125 C 21.882812 -28.117188 20.707031 -29.71875 19.09375 -30.125 C 18.757812 -30.238281 18.375 -30.296875 17.9375 -30.296875 C 17.5625 -30.296875 17.035156 -30.226562 16.359375 -30.09375 C 15.679688 -29.96875 14.972656 -29.703125 14.234375 -29.296875 C 13.535156 -28.890625 12.757812 -28.253906 11.90625 -27.390625 C 11.0625 -26.523438 10.492188 -25.816406 10.203125 -25.265625 C 9.472656 -23.796875 9.0625 -22.519531 8.96875 -21.4375 C 8.875 -20.351562 8.828125 -19.609375 8.828125 -19.203125 C 8.828125 -17.910156 9.019531 -16.570312 9.40625 -15.1875 C 9.789062 -13.8125 10.460938 -12.722656 11.421875 -11.921875 C 12.335938 -11.035156 13.125 -10.535156 13.78125 -10.421875 C 14.445312 -10.316406 14.945312 -10.265625 15.28125 -10.265625 C 16.09375 -10.265625 16.992188 -10.410156 17.984375 -10.703125 C 18.828125 -10.992188 19.773438 -11.414062 20.828125 -11.96875 C 21.878906 -12.519531 22.625 -13.054688 23.0625 -13.578125 C 23.5 -13.972656 23.773438 -14.171875 23.890625 -14.171875 C 24.035156 -14.171875 24.21875 -14.335938 24.4375 -14.671875 C 24.625 -14.929688 24.789062 -15.0625 24.9375 -15.0625 C 25.082031 -15.0625 25.523438 -15.46875 26.265625 -16.28125 C 26.515625 -16.570312 26.785156 -16.828125 27.078125 -17.046875 C 27.378906 -17.265625 27.566406 -17.375 27.640625 -17.375 C 27.859375 -17.375 27.992188 -17.328125 28.046875 -17.234375 C 28.109375 -17.148438 28.140625 -17.070312 28.140625 -17 C 28.140625 -16.882812 28.082031 -16.769531 27.96875 -16.65625 C 27.863281 -16.507812 27.8125 -16.382812 27.8125 -16.28125 C 27.8125 -16.238281 27.828125 -16.203125 27.859375 -16.171875 C 27.898438 -16.097656 27.921875 -15.945312 27.921875 -15.71875 C 27.921875 -15.425781 27.835938 -14.863281 27.671875 -14.03125 C 27.503906 -13.207031 27.289062 -12.628906 27.03125 -12.296875 C 26.738281 -11.859375 26.59375 -11.601562 26.59375 -11.53125 C 26.550781 -11.34375 26.363281 -10.960938 26.03125 -10.390625 C 25.707031 -9.828125 25.378906 -9.363281 25.046875 -9 C 24.535156 -8.332031 23.835938 -7.675781 22.953125 -7.03125 C 22.066406 -6.382812 21.296875 -5.898438 20.640625 -5.578125 C 19.898438 -5.203125 18.941406 -4.890625 17.765625 -4.640625 C 16.953125 -4.484375 16.144531 -4.40625 15.34375 -4.40625 C 12.0625 -4.40625 9.023438 -5.84375 6.234375 -8.71875 C 5.015625 -9.925781 4.101562 -11.320312 3.5 -12.90625 C 2.894531 -14.488281 2.519531 -16.421875 2.375 -18.703125 C 2.375 -18.992188 2.375 -19.304688 2.375 -19.640625 C 2.375 -24.054688 3.828125 -27.828125 6.734375 -30.953125 C 8.710938 -33.160156 10.9375 -34.613281 13.40625 -35.3125 Z M 13.40625 -35.3125 "/></g></g></g><g fill="#ffffff" fill-opacity="1"><g transform="translate(217.56165, 224.088969)"><g><path d="M 4.078125 -33.703125 L 4.296875 -37.1875 L 5.6875 -37.1875 C 7.5625 -37.1875 8.789062 -36.851562 9.375 -36.1875 L 9.875 -35.75 L 9.4375 -31.609375 C 8.914062 -26.648438 8.597656 -22.992188 8.484375 -20.640625 C 8.378906 -18.285156 8.328125 -16.570312 8.328125 -15.5 C 8.328125 -13.882812 8.398438 -12.5625 8.546875 -11.53125 C 8.617188 -10.90625 8.671875 -10.453125 8.703125 -10.171875 C 8.742188 -9.898438 8.8125 -9.671875 8.90625 -9.484375 C 9 -9.304688 9.09375 -9.207031 9.1875 -9.1875 C 9.28125 -9.164062 9.453125 -9.15625 9.703125 -9.15625 C 10.484375 -9.15625 11.285156 -9.394531 12.109375 -9.875 C 12.941406 -10.351562 13.519531 -10.90625 13.84375 -11.53125 L 14.234375 -12.296875 L 14.296875 -11.25 C 14.296875 -11.070312 14.296875 -10.890625 14.296875 -10.703125 C 14.296875 -9.234375 13.742188 -7.945312 12.640625 -6.84375 C 11.828125 -6 11.179688 -5.546875 10.703125 -5.484375 C 10.222656 -5.429688 9.929688 -5.40625 9.828125 -5.40625 C 9.046875 -5.40625 8.140625 -5.679688 7.109375 -6.234375 C 5.015625 -7.265625 3.726562 -9.34375 3.25 -12.46875 C 3.101562 -13.425781 3.03125 -15.023438 3.03125 -17.265625 C 3.03125 -17.710938 3.039062 -18.816406 3.0625 -20.578125 C 3.082031 -22.347656 3.203125 -24.410156 3.421875 -26.765625 C 3.710938 -29.890625 3.929688 -32.203125 4.078125 -33.703125 Z M 4.078125 -33.703125 "/></g></g></g><g fill="#ffffff" fill-opacity="1"><g transform="translate(231.630455, 224.088969)"><g><path d="M 10.484375 -28.6875 C 11.109375 -28.800781 11.734375 -28.859375 12.359375 -28.859375 C 13.128906 -28.859375 14.054688 -28.738281 15.140625 -28.5 C 16.222656 -28.257812 17.242188 -27.753906 18.203125 -26.984375 C 19.492188 -25.984375 20.40625 -24.765625 20.9375 -23.328125 C 21.46875 -21.898438 21.734375 -20.78125 21.734375 -19.96875 C 21.734375 -19.3125 21.601562 -18.742188 21.34375 -18.265625 C 21.125 -17.785156 20.679688 -17.390625 20.015625 -17.078125 C 19.359375 -16.765625 18.296875 -16.441406 16.828125 -16.109375 C 14.109375 -15.523438 11.773438 -15.234375 9.828125 -15.234375 C 9.421875 -15.234375 9.03125 -15.25 8.65625 -15.28125 L 7.0625 -15.390625 L 7.0625 -14.671875 C 7.0625 -13.609375 7.382812 -12.648438 8.03125 -11.796875 C 8.675781 -10.953125 9.507812 -10.421875 10.53125 -10.203125 C 11.007812 -10.097656 11.546875 -10.046875 12.140625 -10.046875 C 12.867188 -10.046875 13.820312 -10.191406 15 -10.484375 C 16.175781 -10.773438 17.375 -11.363281 18.59375 -12.25 C 19.625 -13.019531 20.257812 -13.46875 20.5 -13.59375 C 20.738281 -13.726562 20.984375 -13.847656 21.234375 -13.953125 C 21.347656 -13.992188 21.441406 -14.015625 21.515625 -14.015625 C 21.585938 -14.015625 21.625 -14.003906 21.625 -13.984375 C 21.625 -13.960938 21.625 -13.9375 21.625 -13.90625 C 21.625 -13.789062 21.609375 -13.609375 21.578125 -13.359375 C 21.316406 -12.097656 20.632812 -10.757812 19.53125 -9.34375 C 18.425781 -7.9375 17.34375 -6.972656 16.28125 -6.453125 C 15.539062 -6.085938 14.738281 -5.832031 13.875 -5.6875 C 13.007812 -5.539062 12.226562 -5.46875 11.53125 -5.46875 C 11.195312 -5.46875 10.882812 -5.484375 10.59375 -5.515625 C 8.601562 -5.628906 6.804688 -6.394531 5.203125 -7.8125 C 3.609375 -9.226562 2.535156 -10.984375 1.984375 -13.078125 C 1.765625 -13.921875 1.65625 -15.078125 1.65625 -16.546875 C 1.65625 -18.023438 1.765625 -19.164062 1.984375 -19.96875 C 2.535156 -22.25 3.59375 -24.1875 5.15625 -25.78125 C 6.71875 -27.382812 8.492188 -28.351562 10.484375 -28.6875 Z M 14.296875 -24.390625 C 13.703125 -24.679688 13.128906 -24.828125 12.578125 -24.828125 C 12.023438 -24.828125 11.492188 -24.695312 10.984375 -24.4375 C 10.023438 -24 9.273438 -23.472656 8.734375 -22.859375 C 8.203125 -22.253906 7.753906 -21.421875 7.390625 -20.359375 L 7.0625 -19.46875 L 7.890625 -19.46875 C 8.441406 -19.46875 9.5625 -19.601562 11.25 -19.875 C 12.945312 -20.15625 14.179688 -20.410156 14.953125 -20.640625 C 15.503906 -20.816406 15.832031 -20.953125 15.9375 -21.046875 C 16.050781 -21.140625 16.109375 -21.367188 16.109375 -21.734375 C 16.109375 -22.328125 15.941406 -22.863281 15.609375 -23.34375 C 15.273438 -23.820312 14.835938 -24.171875 14.296875 -24.390625 Z M 14.296875 -24.390625 "/></g></g></g><g fill="#ffffff" fill-opacity="1"><g transform="translate(255.023288, 224.088969)"><g><path d="M 9.984375 -29.234375 C 10.753906 -29.421875 11.5625 -29.515625 12.40625 -29.515625 C 12.632812 -29.515625 13.078125 -29.492188 13.734375 -29.453125 C 14.398438 -29.421875 15.132812 -29.238281 15.9375 -28.90625 C 17.082031 -28.46875 18.101562 -27.707031 19 -26.625 C 19.90625 -25.539062 20.453125 -24.410156 20.640625 -23.234375 C 20.640625 -23.117188 20.640625 -22.953125 20.640625 -22.734375 C 20.640625 -21.992188 20.546875 -20.722656 20.359375 -18.921875 C 20.066406 -16.679688 19.921875 -14.828125 19.921875 -13.359375 C 19.921875 -12.617188 19.957031 -11.972656 20.03125 -11.421875 L 20.1875 -10.421875 L 21.84375 -12.1875 C 22.144531 -12.519531 22.429688 -12.816406 22.703125 -13.078125 C 22.972656 -13.335938 23.191406 -13.507812 23.359375 -13.59375 C 23.523438 -13.6875 23.628906 -13.734375 23.671875 -13.734375 C 23.703125 -13.734375 23.71875 -13.734375 23.71875 -13.734375 C 23.757812 -13.703125 23.78125 -13.664062 23.78125 -13.625 C 23.78125 -13.550781 23.722656 -13.5 23.609375 -13.46875 C 23.503906 -13.425781 23.453125 -13.390625 23.453125 -13.359375 C 23.453125 -13.273438 23.488281 -13.21875 23.5625 -13.1875 C 23.632812 -13.144531 23.671875 -13.085938 23.671875 -13.015625 C 23.671875 -12.835938 23.5625 -12.523438 23.34375 -12.078125 C 23.113281 -11.640625 23 -11.382812 23 -11.3125 C 23 -11.3125 23.09375 -11.382812 23.28125 -11.53125 C 23.46875 -11.71875 23.578125 -11.8125 23.609375 -11.8125 C 23.648438 -11.8125 23.671875 -11.789062 23.671875 -11.75 C 23.671875 -11.675781 23.632812 -11.457031 23.5625 -11.09375 C 23.1875 -9.25 22.820312 -7.96875 22.46875 -7.25 C 22.125 -6.53125 21.585938 -6.023438 20.859375 -5.734375 C 20.410156 -5.554688 20.003906 -5.46875 19.640625 -5.46875 C 19.609375 -5.46875 19.472656 -5.472656 19.234375 -5.484375 C 18.992188 -5.503906 18.523438 -5.625 17.828125 -5.84375 C 17.046875 -6.144531 16.359375 -6.488281 15.765625 -6.875 C 15.179688 -7.257812 14.78125 -7.632812 14.5625 -8 L 14.234375 -8.609375 L 13.46875 -7.828125 C 12.757812 -7.128906 11.875 -6.597656 10.8125 -6.234375 C 9.75 -5.867188 8.832031 -5.6875 8.0625 -5.6875 C 7.800781 -5.6875 7.5625 -5.703125 7.34375 -5.734375 C 6.164062 -5.921875 5.066406 -6.472656 4.046875 -7.390625 C 3.035156 -8.304688 2.347656 -9.390625 1.984375 -10.640625 C 1.765625 -11.421875 1.65625 -12.125 1.65625 -12.75 C 1.65625 -12.894531 1.671875 -13.1875 1.703125 -13.625 C 1.742188 -14.070312 1.96875 -14.695312 2.375 -15.5 C 3 -16.75 3.953125 -17.820312 5.234375 -18.71875 C 6.523438 -19.625 8.09375 -20.316406 9.9375 -20.796875 C 11.289062 -21.128906 12.46875 -21.425781 13.46875 -21.6875 L 15.0625 -22.171875 L 15.109375 -22.953125 C 15.109375 -23.054688 15.109375 -23.164062 15.109375 -23.28125 C 15.109375 -23.46875 15.082031 -23.644531 15.03125 -23.8125 C 14.976562 -23.976562 14.820312 -24.171875 14.5625 -24.390625 C 14.269531 -24.679688 14.015625 -24.863281 13.796875 -24.9375 C 13.578125 -25.007812 13.207031 -25.046875 12.6875 -25.046875 C 11.65625 -25.046875 10.753906 -24.804688 9.984375 -24.328125 C 9.210938 -23.847656 8.332031 -23.019531 7.34375 -21.84375 C 7.15625 -21.59375 6.929688 -21.46875 6.671875 -21.46875 C 6.597656 -21.46875 6.507812 -21.484375 6.40625 -21.515625 C 5.8125 -21.660156 5.144531 -22.097656 4.40625 -22.828125 C 3.675781 -23.566406 3.3125 -24.175781 3.3125 -24.65625 C 3.3125 -24.769531 3.421875 -24.984375 3.640625 -25.296875 C 3.859375 -25.609375 4.132812 -25.929688 4.46875 -26.265625 C 5.09375 -26.960938 5.898438 -27.578125 6.890625 -28.109375 C 7.890625 -28.640625 8.921875 -29.015625 9.984375 -29.234375 Z M 14.515625 -17.21875 C 14.515625 -17.363281 14.457031 -17.4375 14.34375 -17.4375 C 14.195312 -17.4375 13.609375 -17.289062 12.578125 -17 C 11.515625 -16.664062 10.671875 -16.332031 10.046875 -16 C 9.421875 -15.664062 8.882812 -15.257812 8.4375 -14.78125 C 7.78125 -14.007812 7.453125 -13.128906 7.453125 -12.140625 C 7.453125 -11.804688 7.488281 -11.457031 7.5625 -11.09375 C 7.632812 -10.757812 7.722656 -10.535156 7.828125 -10.421875 C 7.941406 -10.316406 8.109375 -10.265625 8.328125 -10.265625 C 8.398438 -10.265625 8.492188 -10.265625 8.609375 -10.265625 C 9.191406 -10.265625 9.953125 -10.578125 10.890625 -11.203125 C 11.828125 -11.828125 12.609375 -12.597656 13.234375 -13.515625 C 13.535156 -13.921875 13.820312 -14.535156 14.09375 -15.359375 C 14.375 -16.191406 14.515625 -16.8125 14.515625 -17.21875 Z M 14.515625 -17.21875 "/></g></g></g><g fill="#ffffff" fill-opacity="1"><g transform="translate(279.354044, 224.088969)"><g><path d="M 3.203125 -29.234375 C 3.710938 -29.304688 4.226562 -29.34375 4.75 -29.34375 C 5.039062 -29.34375 5.460938 -29.316406 6.015625 -29.265625 C 6.566406 -29.210938 7.125 -29.03125 7.6875 -28.71875 C 8.257812 -28.40625 8.546875 -28.066406 8.546875 -27.703125 C 8.546875 -27.472656 8.601562 -27.359375 8.71875 -27.359375 C 8.820312 -27.359375 9.191406 -27.546875 9.828125 -27.921875 C 11.398438 -28.910156 13.203125 -29.40625 15.234375 -29.40625 C 16.179688 -29.40625 16.976562 -29.300781 17.625 -29.09375 C 18.269531 -28.894531 18.960938 -28.519531 19.703125 -27.96875 C 20.171875 -27.632812 20.539062 -27.210938 20.8125 -26.703125 C 21.09375 -26.191406 21.332031 -25.328125 21.53125 -24.109375 C 21.738281 -22.898438 21.890625 -21.144531 21.984375 -18.84375 C 22.078125 -16.539062 22.160156 -13.863281 22.234375 -10.8125 L 22.34375 -5.84375 L 21.796875 -5.6875 C 21.722656 -5.6875 21.628906 -5.6875 21.515625 -5.6875 C 21.148438 -5.6875 20.523438 -5.6875 19.640625 -5.6875 C 18.753906 -5.6875 17.984375 -5.757812 17.328125 -5.90625 L 16.21875 -6.015625 L 16.28125 -10.53125 C 16.28125 -10.976562 16.28125 -11.441406 16.28125 -11.921875 C 16.28125 -13.828125 16.210938 -16.003906 16.078125 -18.453125 C 15.953125 -20.898438 15.78125 -22.414062 15.5625 -23 C 15.34375 -23.59375 15.007812 -23.960938 14.5625 -24.109375 C 14.300781 -24.222656 14.007812 -24.28125 13.6875 -24.28125 C 13.164062 -24.28125 12.445312 -24.101562 11.53125 -23.75 C 10.613281 -23.40625 9.914062 -22.863281 9.4375 -22.125 L 8.875 -21.296875 L 8.65625 -5.953125 L 7.5625 -5.90625 C 7.414062 -5.90625 7.265625 -5.90625 7.109375 -5.90625 C 6.453125 -5.90625 5.644531 -6.015625 4.6875 -6.234375 L 2.8125 -6.625 L 2.765625 -17.046875 L 2.765625 -29.1875 Z M 3.203125 -29.234375 "/></g></g></g></svg>