<svg xmlns="http://www.w3.org/2000/svg" xmlns:xlink="http://www.w3.org/1999/xlink" width="500" zoomAndPan="magnify" viewBox="0 0 375 374.999991" height="500" preserveAspectRatio="xMidYMid meet" version="1.0"><defs><g/><clipPath id="58a296e7e3"><path d="M 52.933594 52.933594 L 322.183594 52.933594 L 322.183594 322.183594 L 52.933594 322.183594 Z M 52.933594 52.933594 " clip-rule="nonzero"/></clipPath></defs><g clip-path="url(#58a296e7e3)"><path fill="#5271ff" d="M 187.496094 52.933594 C 113.253906 52.933594 52.933594 113.253906 52.933594 187.496094 C 52.933594 261.738281 113.253906 322.054688 187.496094 322.054688 C 261.738281 322.054688 322.054688 261.738281 322.054688 187.496094 C 322.054688 113.253906 261.738281 52.933594 187.496094 52.933594 Z M 187.496094 58.785156 C 258.652344 58.785156 316.203125 116.335938 316.203125 187.496094 C 316.203125 258.652344 258.652344 316.203125 187.496094 316.203125 C 116.335938 316.203125 58.785156 258.652344 58.785156 187.496094 C 58.785156 116.335938 116.335938 58.785156 187.496094 58.785156 Z M 187.496094 58.785156 " fill-opacity="1" fill-rule="nonzero"/></g><path fill="#5271ff" d="M 141.023438 122.542969 C 165.234375 168.617188 168.5625 172.359375 170.910156 169.21875 C 173.058594 166.351562 139.226562 73.269531 130.710938 93.164062 C 130.988281 93.054688 126.242188 94.429688 141.023438 122.542969 Z M 141.023438 122.542969 " fill-opacity="1" fill-rule="nonzero"/><path fill="#5271ff" d="M 191.910156 76.027344 C 184.773438 82.808594 190.058594 143.082031 190.421875 145.050781 C 191.28125 149.808594 194.992188 151.15625 196.464844 143.957031 C 196.683594 142.867188 207.15625 70.429688 191.910156 76.027344 Z M 191.910156 76.027344 " fill-opacity="1" fill-rule="nonzero"/><path fill="#5271ff" d="M 90.269531 138.984375 C 78.574219 149.96875 140.765625 183.96875 142.9375 183.175781 C 150.898438 180.253906 99.355469 139.996094 99.296875 139.957031 C 92.996094 135.933594 90.472656 138.902344 90.269531 138.984375 Z M 90.269531 138.984375 " fill-opacity="1" fill-rule="nonzero"/><path fill="#5271ff" d="M 226.613281 155.179688 C 224.324219 174.195312 249.207031 129.726562 255.859375 111.769531 C 257.871094 106.339844 257.128906 102.328125 253.851562 100.898438 C 242.757812 96.054688 226.773438 153.878906 226.613281 155.179688 Z M 226.613281 155.179688 " fill-opacity="1" fill-rule="nonzero"/><path fill="#5271ff" d="M 245.046875 184.371094 C 249.195312 187.460938 290.152344 149.417969 293.691406 144.035156 C 296.421875 139.882812 292.878906 132.84375 284.703125 138.804688 C 284.742188 138.777344 239.777344 180.445312 245.046875 184.371094 Z M 245.046875 184.371094 " fill-opacity="1" fill-rule="nonzero"/><g fill="#5271ff" fill-opacity="1"><g transform="translate(149.932415, 297.618672)"><g><path d="M 31.703125 -101.828125 C 35.140625 -102.660156 38.863281 -103.078125 42.875 -103.078125 C 46.882812 -103.078125 50.453125 -102.554688 53.578125 -101.515625 C 55.660156 -100.890625 57.085938 -100.34375 57.859375 -99.875 C 58.640625 -99.40625 59.445312 -98.65625 60.28125 -97.625 C 62.050781 -95.332031 63.273438 -93.117188 63.953125 -90.984375 C 64.628906 -88.847656 64.96875 -87.414062 64.96875 -86.6875 C 64.96875 -85.75 64.707031 -85.175781 64.1875 -84.96875 C 64.082031 -84.96875 63.925781 -84.96875 63.71875 -84.96875 C 63.09375 -84.96875 62.363281 -85.175781 61.53125 -85.59375 C 60.488281 -86.113281 57.679688 -86.894531 53.109375 -87.9375 C 49.566406 -88.769531 46.441406 -89.1875 43.734375 -89.1875 C 43.628906 -89.1875 42.820312 -89.160156 41.3125 -89.109375 C 39.800781 -89.054688 37.585938 -88.5625 34.671875 -87.625 C 32.796875 -87 30.945312 -86.007812 29.125 -84.65625 C 27.300781 -83.300781 25.972656 -81.945312 25.140625 -80.59375 C 24.722656 -79.863281 24.488281 -79.34375 24.4375 -79.03125 C 24.382812 -78.71875 24.359375 -78.457031 24.359375 -78.25 C 24.359375 -77.832031 24.460938 -77.257812 24.671875 -76.53125 C 25.296875 -74.238281 26.597656 -72.46875 28.578125 -71.21875 C 30.554688 -69.96875 34.359375 -68.40625 39.984375 -66.53125 C 48.003906 -63.925781 54.195312 -60.851562 58.5625 -57.3125 C 62.9375 -53.78125 65.800781 -49.515625 67.15625 -44.515625 C 67.78125 -42.535156 68.09375 -40.710938 68.09375 -39.046875 C 68.09375 -38.941406 68.066406 -38.421875 68.015625 -37.484375 C 67.960938 -36.546875 67.570312 -35.085938 66.84375 -33.109375 C 64.96875 -27.585938 61.0625 -23.160156 55.125 -19.828125 C 49.195312 -16.503906 42.640625 -14.84375 35.453125 -14.84375 C 34.929688 -14.84375 34.460938 -14.84375 34.046875 -14.84375 C 31.441406 -14.84375 29.410156 -15.050781 27.953125 -15.46875 C 26.492188 -15.882812 24.410156 -16.664062 21.703125 -17.8125 C 19.941406 -18.539062 18.90625 -18.957031 18.59375 -19.0625 C 17.445312 -19.269531 15.753906 -20.332031 13.515625 -22.25 C 11.273438 -24.175781 10.15625 -25.554688 10.15625 -26.390625 C 10.15625 -27.015625 9.632812 -28.054688 8.59375 -29.515625 C 7.550781 -31.078125 7.03125 -32.171875 7.03125 -32.796875 C 7.03125 -33.210938 7.289062 -33.421875 7.8125 -33.421875 C 7.8125 -33.421875 7.863281 -33.421875 7.96875 -33.421875 C 8.070312 -33.316406 8.226562 -33.265625 8.4375 -33.265625 C 9.164062 -33.054688 9.945312 -32.640625 10.78125 -32.015625 C 11.300781 -31.597656 11.769531 -31.390625 12.1875 -31.390625 C 12.5 -31.390625 13.382812 -30.816406 14.84375 -29.671875 C 16.925781 -28.109375 19.03125 -27.195312 21.15625 -26.9375 C 23.289062 -26.675781 24.878906 -26.546875 25.921875 -26.546875 C 28.421875 -26.546875 31.078125 -26.859375 33.890625 -27.484375 C 37.535156 -28.210938 40.765625 -29.4375 43.578125 -31.15625 C 46.390625 -32.875 48.238281 -34.539062 49.125 -36.15625 C 50.007812 -37.769531 50.453125 -39.097656 50.453125 -40.140625 C 50.453125 -41.078125 50.191406 -41.960938 49.671875 -42.796875 C 47.691406 -46.335938 42.222656 -49.515625 33.265625 -52.328125 C 25.242188 -54.828125 19.3125 -57.894531 15.46875 -61.53125 C 10.882812 -65.800781 8.332031 -70.644531 7.8125 -76.0625 C 7.8125 -76.582031 7.8125 -77.050781 7.8125 -77.46875 C 7.8125 -82.570312 9.941406 -87.4375 14.203125 -92.0625 C 18.472656 -96.695312 24.304688 -99.953125 31.703125 -101.828125 Z M 31.703125 -101.828125 "/></g></g></g></svg>